#!OML:ASF F:\VICON\USERDATA\INSTALL\rory3\rory3.ASF
:FULLY-SPECIFIED
:DEGREES
28
root 0.29964543879699257 17.106233037859795 0.25668698601911366 4.7122711281799345 2.5866176171185664 1.8074504630261536
lfemur -8.290122255351795 -2.0771366550121226 -30.00941579438888
ltibia 42.29024979118121
lfoot -0.5351451664484634 -12.241474537311847
ltoes 0.6657740349040608
rfemur -31.286352922133602 -5.552289115375241 16.424454170822095
rtibia 101.82120614655521
rfoot 15.619987522039976 -2.501459233459795
rtoes 8.033712313670874
lowerback 16.14946430689413 0.3732539905023209 -1.7792427175603032
upperback -0.17676967860791393 0.7200587670594819 -0.7135835617919362
thorax -9.403826470238318 0.7076448667827479 0.4634483172108758
lowerneck -20.310950991099332 -5.27080615622199 -2.010602182553753
upperneck 15.224920992534386 -8.137234956195591 3.4350153778068404
head 8.238850523645786 -3.558781336634751 0.5831997431801745
lclavicle -1.9521778548086666e-15 1.1013510665835569e-15
lhumerus -43.77095743248234 -10.020119484026411 96.553648438616
lradius 105.61097276666885
lwrist 46.2079466822211
lhand -20.25002951182931 7.867960293302408
lfingers 7.125020000000001
lthumb 6.190790022266082 37.86464300182547
rclavicle -1.952158889506409e-15 1.1013659667669342e-15
rhumerus -49.801415827071565 12.841577265940483 -104.52606732892156
rradius 98.6701420876424
rwrist -12.45107870794164
rhand -26.429898887445535 -89.59445871200727
rfingers 7.125020000000001
rthumb -0.432411411355992 15.604338302735894
29
root 0.3258985067127811 17.202273925083194 1.6516646521124314 5.002085149343065 2.3835793313963696 1.600772499851863
lfemur -4.206361333614362 -2.588299493545784 -29.927563831573277
ltibia 40.568578501760186
lfoot -3.3623485131501383 -12.053008415548167
ltoes -1.178458680896453
rfemur -36.736427004314905 -6.219623260986148 16.85787118690653
rtibia 98.17838525023501
rfoot 14.026976537703588 -1.386047147000249
rtoes 8.85501019766656
lowerback 16.110042419218697 -0.037526314181927756 -2.0755029284402924
upperback -0.20856735970187135 0.4650114789245596 -0.6938225799764375
thorax -9.467210214261998 0.4222745233277699 0.837956381506525
lowerneck -20.33308255194051 -4.96621685335872 -1.974859126693836
upperneck 15.442050904026067 -7.728598979322421 3.244149047056242
head 8.28015027485992 -3.423252951650957 0.551585169839852
lclavicle -1.952177854810054e-15 1.101351066582467e-15
lhumerus -41.14459201381894 -10.134147240262367 96.1617177827948
lradius 106.80296489332869
lwrist 46.405415335578056
lhand -20.397694563520062 7.699837671359409
lfingers 7.125020000000001
lthumb 6.185223492204782 37.793354956269674
rclavicle -1.9521588894311295e-15 1.1013659668260778e-15
rhumerus -51.53036043314705 12.558007319818238 -104.64358154205826
rradius 99.90721916863325
rwrist -13.109108013522286
rhand -25.667890960015164 -76.0680202596881
rfingers 7.125020000000001
rthumb 0.626573545493153 17.68244310705799
30
root 0.3403466756095214 17.3132004679985 2.4214074547220146 5.218998522782966 1.6199927675527388 0.8692355068487938
lfemur -1.037606762342481 -2.855042131220845 -29.868310590095845
ltibia 38.29149380878624
lfoot -5.671269778440905 -11.239049614572735
ltoes -4.507275479340782
rfemur -40.677510174368095 -6.2802581722094155 17.936152206432105
rtibia 93.05504454700053
rfoot 12.168139054251297 -0.4620745403186035
rtoes 4.372356959629727
lowerback 15.888914591749478 -0.37315215634033755 -2.119293631291682
upperback -0.1950089665363236 0.07366722338814757 -0.6375301374008508
thorax -9.381240474022642 0.1749819585913668 1.2181107850814556
lowerneck -20.423461434713168 -4.777189645689772 -2.018067355434471
upperneck 15.63519561277592 -7.348321006908567 3.072964296654308
head 8.351714288987344 -3.2612871188385273 0.5416309388238957
lclavicle -1.9521778548105934e-15 1.1013510665820432e-15
lhumerus -39.46271600647983 -10.368575710319481 95.74195343816518
lradius 107.97367968020593
lwrist 46.076554812518
lhand -20.258189382437866 7.7806045913899595
lfingers 7.125020000000001
lthumb 6.186465649325161 37.78964500367551
rclavicle -1.9521588893769726e-15 1.1013659668686266e-15
rhumerus -53.51451038804378 12.38126906003618 -104.60384699605491
rradius 101.43548583143046
rwrist -15.327609338522288
rhand -25.900894922825838 -98.10931189526343
rfingers 7.125020000000001
rthumb 0.28300731659891215 17.831871932055343
31
root 0.3660851984813596 17.45542137471198 3.6641795931599375 5.4600749683745855 -0.22657004056978125 0.13595361023706642
lfemur 2.531412189824156 -2.607867958186108 -29.329897048377205
ltibia 35.1353531339461
lfoot -6.663859067434203 -9.844340553169237
ltoes -7.947522537770656
rfemur -43.34027331711689 -5.663898782916857 18.720225432904883
rtibia 86.63004242283102
rfoot 10.433296561453785 0.20226872423094022
rtoes 2.2860159537667712
lowerback 15.479889330763841 -0.6312642598616929 -2.287735309014306
upperback -0.21573176193229227 -0.26169261956060386 -0.5945345232086714
thorax -9.4449393525341 0.007649124219124004 1.5501623603279169
lowerneck -20.55884718636054 -4.514966452004496 -2.0134642855246305
upperneck 15.833003763213704 -6.852273312971659 2.9368316126412974
head 8.392276125248333 -3.0923612251967194 0.53697954488193
lclavicle -1.9521778548137173e-15 1.1013510665795889e-15
lhumerus -38.28504116724808 -10.568200343076642 95.47599663497998
lradius 109.62315606822533
lwrist 45.712329506031416
lhand -20.14448418951203 7.528449481394136
lfingers 7.125020000000001
lthumb 6.279834932605194 37.47134925228874
rclavicle -1.9521588893869304e-15 1.1013659668608029e-15
rhumerus -55.347753457457664 12.529387483932927 -104.33402835533329
rradius 103.0309567738255
rwrist -16.731988336639063
rhand -25.63561739364523 -119.08285678223362
rfingers 7.125020000000001
rthumb 0.929948277761216 18.073720568757466
32
root 0.3800439692135502 17.724636886169097 3.447344948113818 5.726903187796484 -1.980265263181385 0.004097952241812308
lfemur 5.152392256507099 -2.504025948717958 -29.414614638224332
ltibia 31.06299542130761
lfoot -6.228659649025166 -8.509721458955845
ltoes -11.048229591780238
rfemur -44.47750250355657 -3.871660258895319 20.12231196089776
rtibia 79.19793998678817
rfoot 8.944680799988598 0.34503447839895784
rtoes -0.573396498484106
lowerback 15.045425712558583 -0.9295086347210892 -2.4826043918260705
upperback -0.31617739747384854 -0.3851010343861829 -0.41855058070654527
thorax -9.546757506271575 -0.07533830193898505 1.8093724754848008
lowerneck -20.64053704186443 -4.250851939158553 -2.0360345586099258
upperneck 16.095969435225122 -6.413466408201566 2.8503728329561406
head 8.42573648246835 -2.916667239493043 0.543922477801703
lclavicle -1.9521778548136818e-15 1.1013510665796167e-15
lhumerus -37.23898801119488 -10.415957843715352 95.38750309547416
lradius 111.80006537531476
lwrist 45.79337895047049
lhand -19.77934955072649 7.267171332834903
lfingers 7.125020000000001
lthumb 6.553642683838122 37.1729898283395
rclavicle -1.9521588894533915e-15 1.1013659668085878e-15
rhumerus -57.20401525678511 12.652782208567809 -104.05724160054366
rradius 104.34736930398886
rwrist -16.835707747531785
rhand -24.47890146059496 -138.03668681187378
rfingers 7.125020000000001
rthumb 1.9578520775376715 16.14869862993999
33
root 0.419342761308377 18.00132532511911 5.2191102843722685 5.843466426804146 -2.918227275857112 0.09168777532339623
lfemur 7.844537193924118 -2.210641411399569 -28.939330887896226
ltibia 26.400010225910545
lfoot -4.909250456823763 -8.118289603202376
ltoes -13.475013773225221
rfemur -44.6943381571792 -1.7097450710300377 21.58093069405188
rtibia 71.20948476490449
rfoot 8.13517595013244 0.07955937700577564
rtoes -2.5029773952576067
lowerback 14.668557987765695 -1.1156976230911677 -2.529714331212354
upperback -0.43312838665730147 -0.7937218790242742 -0.2258223677830382
thorax -9.622567308144419 -0.1518888411866619 1.9483280322620038
lowerneck -20.677844587600422 -4.054232180253302 -2.103469765183074
upperneck 16.330220540568934 -6.041168810404531 2.777156626165151
head 8.404798924907826 -2.7877231295540668 0.551823535072636
lclavicle -1.9521778548137157e-15 1.1013510665795899e-15
lhumerus -37.339781070749254 -10.430209771812851 95.19431254589203
lradius 114.31399009818634
lwrist 45.91147850987833
lhand -19.162915973418066 6.869285190670713
lfingers 7.125020000000001
lthumb 7.1160498316719325 36.837185577667306
rclavicle -1.952158889457327e-15 1.1013659668054955e-15
rhumerus -58.96899599491774 13.053226397177351 -103.75792162077899
rradius 105.29007172800398
rwrist -15.399351636043379
rhand -23.187072345638175 -145.52908589560826
rfingers 7.125020000000001
rthumb 2.8982776186318135 14.473423073958447
34
root 0.4339800092584914 18.204515733816894 5.202129677338288 5.795485115277932 -3.904617813053525 0.3953525849687469
lfemur 9.048930215492408 -2.2635516497839228 -28.867895948206588
ltibia 21.82136152481776
lfoot -3.322035735256506 -8.852031474931414
ltoes -14.81685362307367
rfemur -45.69227732063054 -0.06539141788538227 22.49838486056827
rtibia 63.30022648088496
rfoot 7.839996231054954 -0.413146424435741
rtoes -4.532540026705432
lowerback 14.180919656368468 -1.2256035838684247 -2.6243109713346224
upperback -0.6610761810706298 -1.1627202777483512 0.09503638285497029
thorax -9.581718817343678 -0.23409174088683582 2.0759129220196386
lowerneck -20.566556920690495 -3.8140610333721088 -2.1480395368035823
upperneck 16.673301738280315 -5.757316705602776 2.6784360744632254
head 8.406342625784784 -2.7214554539608167 0.5467468449256228
lclavicle -1.952177854806655e-15 1.1013510665851373e-15
lhumerus -37.44613551872831 -10.459545029883815 95.30981653574248
lradius 116.58015042573142
lwrist 46.21380727572971
lhand -18.277482301221582 6.363139214484082
lfingers 7.125020000000001
lthumb 7.726880697030741 36.275495798006254
rclavicle -1.9521588895092658e-15 1.1013659667646899e-15
rhumerus -60.39300245786225 13.149076082452371 -103.20821642455022
rradius 105.89149403054641
rwrist -14.926736271031523
rhand -23.748320309974776 -140.74118271910822
rfingers 7.125020000000001
rthumb 2.492253679101416 15.205342994571776
